<?xml version="1.0" standalone="no"?>
<!DOCTYPE svg PUBLIC "-//W3C//DTD SVG 20010904//EN"
 "http://www.w3.org/TR/2001/REC-SVG-20010904/DTD/svg10.dtd">
<svg version="1.0" xmlns="http://www.w3.org/2000/svg"
 width="497.000000pt" height="506.000000pt" viewBox="0 0 497.000000 506.000000"
 preserveAspectRatio="xMidYMid meet">
<metadata>
Created by potrace 1.15, written by Peter Selinger 2001-2017
</metadata>
<g transform="translate(0.000000,506.000000) scale(0.100000,-0.100000)"
fill="#000000" stroke="none">
<path d="M1781 4975 c-35 -24 -72 -47 -82 -50 -11 -4 -22 -17 -25 -30 -3 -14
-16 -26 -32 -30 -49 -12 -81 -43 -84 -82 -4 -50 -28 -63 -72 -39 -21 11 -42
15 -56 11 -24 -8 -23 -14 5 -79 l16 -39 -23 7 c-82 24 -133 19 -143 -15 -4
-12 -2 -31 4 -43 17 -32 -38 -156 -69 -156 -39 0 -60 -19 -60 -54 0 -22 -11
-48 -33 -77 -48 -65 -67 -96 -67 -114 0 -11 -12 -15 -50 -15 -44 0 -52 -3 -59
-23 -5 -13 -21 -37 -35 -54 l-27 -32 38 -58 c48 -74 58 -94 66 -125 4 -14 27
-52 53 -84 38 -50 44 -64 39 -89 -3 -16 -7 -93 -8 -170 -2 -127 -4 -143 -24
-172 -13 -17 -23 -35 -23 -40 0 -5 -14 -31 -31 -57 -17 -25 -35 -65 -41 -88
-8 -36 -6 -44 11 -62 l21 -20 62 22 c34 13 76 33 92 45 17 13 65 40 106 62 41
21 92 49 112 62 21 12 75 41 120 62 90 43 112 56 245 146 98 66 195 116 293
151 87 31 103 53 101 140 -1 37 -4 71 -7 76 -3 4 -27 8 -53 8 l-48 0 -7 77
c-6 81 -15 100 -65 149 -30 30 -31 34 -38 141 -5 101 -4 113 14 139 62 87 67
157 19 252 -76 149 -90 196 -83 275 3 34 9 74 13 90 9 39 -9 35 -85 -18z"/>
</g>
</svg>
